<svg height="32" viewBox="0 0 64 64" width="32" xmlns="http://www.w3.org/2000/svg">
    <defs>
        <mask id="planet">
            <rect height="100%" width="100%" fill="white"></rect>
            <path d="M32.3018,33.6125c5.8964-1.7021,11.5402-3.7472,16.2382-5.8716 c-2.429-9.4721-12.1658-14.9907-21.4857-12.3006c-9.3326,2.694-14.6183,12.5769-11.622,21.8572 C20.5399,36.5917,26.4052,35.3146,32.3018,33.6125z M48.5444,21.3696c0.736,1.1588,1.3505,2.3987,1.8359,3.7059 c0.7526-0.0797,7.017-0.7255,7.2819,0.0642c0.162,0.483-0.3116,0.7333-1.217,1.368c-2.2318,1.5643-10.4612,5.9171-23.4074,9.6537 C21.0247,39.6294,6.7236,41.5874,6.327,39.958c-0.1932-0.7925,5.4105-3.5853,6.1265-3.9375 c-0.2842-1.3596-0.4221-2.7348-0.4153-4.1146c-7.882,3.7013-12.6571,7.4473-11.9427,9.9213 c0.9576,3.3159,10.7211,2.5462,14.1592,2.1739c2.3845-0.2565,4.6229-0.6285,4.6229-0.6285 c4.2806,4.8695,11.1268,7.0972,17.7404,5.1876c6.6276-1.9131,11.2211-7.4561,12.2449-13.8428 C68.5032,26.3654,69.6238,18.7659,48.5444,21.3696z" fill="black"/>
        </mask>
    </defs>
    <g id="box">
        <rect fill="none" height="64" width="64"/>
    </g>
    <g id="icon">
        <circle cx="32" cy="32" r="32" fill="#111827" mask="url(#planet)"></circle>
    </g>
</svg>
