<svg viewBox="0 0 450 450" xmlns="http://www.w3.org/2000/svg">
  <g fill="#111827" class="fill-333333">
    <circle cx="372.941" cy="180.858" r="24.74"></circle>
    <circle cx="81.245" cy="254.986" r="14.928"></circle>
    <circle cx="324.219" cy="348.74" r="10.562"></circle>
    <path d="M100.481 80.233c10.366 0 18.769-8.402 18.769-18.765 0-10.368-8.403-18.77-18.769-18.77-10.366 0-18.768 8.402-18.768 18.77 0 10.363 8.402 18.765 18.768 18.765z"></path>
    <circle cx="203.884" cy="390.138" r="17.164"></circle>
    <circle cx="334.808" cy="101.33" r="10.562"></circle>
    <circle cx="135.607" cy="156.339" r="9.508"></circle>
    <path d="M444.096 202.407c-2.763-10.549-17.721-17.143-41.268-19.847a29.811 29.811 0 0 1-2.131 9.52c8.832 2.779 14.318 6.843 15.725 12.213 3.497 13.347-18.944 32.018-57.294 50.768-13.548-8.326-28.811-17.005-45.424-25.786a88.795 88.795 0 0 0-10.031-37.39c14.412-1.946 27.905-3.242 40.195-3.879a29.853 29.853 0 0 1-.819-5.501c-13.11 1.026-27.166 2.651-41.919 4.843-15.604-26.014-44.074-43.426-76.616-43.426-21.837 0-41.832 7.852-57.346 20.872a817.568 817.568 0 0 0-18.792-6.406 13.147 13.147 0 0 1-.433 1.881 855.373 855.373 0 0 1 17.413 6.079c-10.55 9.345-18.879 21.143-24.077 34.508 24.37 13.396 52.907 27.609 83.822 41.5 25.368 11.398 49.835 21.45 72.275 29.846a703.227 703.227 0 0 0 8.94-3.193c4.806-10.961 7.478-23.07 7.478-35.807 0-.473-.01-.94-.017-1.411 15.997 8.356 30.608 16.507 43.43 24.201-31.968 15.42-74.578 30.836-122.278 43.33-106.661 27.939-198.342 30.691-204.771 6.148-2.727-10.41 10.329-24.062 34.401-38.46a20.5 20.5 0 0 1-2.798-5.415c-37.829 20.329-59.324 40.461-55.393 55.469 7.777 29.688 112.069 28.088 232.942-3.574 20.592-5.395 40.333-11.313 58.883-17.567 68.41 24.528 119.663 33.644 125.709 20.187 4.279-9.525-14.938-28.475-49.14-51.094 46.392-22.686 73.725-45.843 69.334-62.609zm-30.56 102.972c-4.22 9.39-42.266 2.174-95.652-16.383 20.318-7.457 38.878-15.268 55.161-23.147 27.959 18.124 43.58 32.652 40.491 39.53z"></path>
    <path d="M135.915 222.226a89.251 89.251 0 0 0-.594 7.254c-12.972 4.704-25.257 9.556-36.706 14.481a20.497 20.497 0 0 1 2.153 4.517c10.597-4.747 22.148-9.461 34.486-14.057.391 29.094 14.691 54.824 36.562 70.847 19.795-3.577 40.788-8.202 62.398-13.863a851.208 851.208 0 0 0 39.412-11.335l11.134-3.331a1294.378 1294.378 0 0 1-59.658-24.996c-20.807-9.347-40.532-18.843-58.639-28.137l.054-.018-5.642-2.89-.025.009c-63.77-33.198-105.887-63.327-100.988-74.23 3.307-7.362 27.405-4.518 63.387 5.997.171-.548.389-1.073.628-1.586-44.023-12.488-74.357-15.194-78.922-5.035-5.802 12.913 31.579 43.149 90.96 76.373z"></path>
  </g>
</svg>
